# xmcd
#
# Track frame offsets: 
#        150
#        13185
#        37029
#        48438
#        65131
#        81305
#        99070
#        112215
#        131316
#        150456
#        166675
#        181695
#        204665
#        218509
#        236877
#
# Disc length: 3377 seconds
#
# Revision: 0
# Processed by: cddbd v1.5.2PL0 Copyright (c) Steve Scherf et al.
# Submitted via: ExactAudioCopy v1.0b3
#
DISCID=c50d2f0f
DTITLE=Little Joe Washington - Texas Fire Line
DYEAR=2009
DGENRE=Blues
TTITLE0=I'll Go Crazy
TTITLE1=Ike
TTITLE2=Lonely Lonely Nights
TTITLE3=Fonky
TTITLE4=She'S In New Orleans
TTITLE5=You Send Me
TTITLE6=Just A Little Bit
TTITLE7=Chameleon
TTITLE8=Church House Blues
TTITLE9=Somebody Tell Me
TTITLE10=I Love Country Girls
TTITLE11=You'Re Still My Baby
TTITLE12=More And More
TTITLE13=Cry All Night Long
TTITLE14=Green Onions
EXTD=
EXTT0=
EXTT1=
EXTT2=
EXTT3=
EXTT4=
EXTT5=
EXTT6=
EXTT7=
EXTT8=
EXTT9=
EXTT10=
EXTT11=
EXTT12=
EXTT13=
EXTT14=
PLAYORDER=
